PathFileType	4	(X/Y/Z)	TRC_missing_Z7.trc
DataRate	CameraRate	NumFrames	NumMarkers	Units	OrigDataRate	OrigDataStartFrame	OrigNumFrames
100.0	100.0	11	37	mm	100.0	2283	2609	
Frame#	Time	T10			C7			CLAV			RACR1			LACR1			RPSI			LPSI			RASI			LASI			LTH2			LTH3			LTH1			RTH2			RTH3			RTH1			RLFC			RMFC			RTB1			RTB3			RTB2			LLFC			LMFC			LTB1			LTB3			LTB2			LLMAL			LCAL			LMMAL			RLMAL			RMMAL			RCAL			RMT5			RMT1			RToe			LMT5			LMT1			LToe			
		X1	Y1	Z1	X2	Y2	Z2	X3	Y3	Z3	X4	Y4	Z4	X5	Y5	Z5	X6	Y6	Z6	X7	Y7	X8	Y8	Z8	X9	Y9	Z9	X10	Y10	Z10	X11	Y11	Z11	X12	Y12	Z12	X13	Y13	Z13	X14	Y14	Z14	X15	Y15	Z15	X16	Y16	Z16	X17	Y17	Z17	X18	Y18	Z18	X19	Y19	Z19	X20	Y20	Z20	X21	Y21	Z21	X22	Y22	Z22	X23	Y23	Z23	X24	Y24	Z24	X25	Y25	Z25	X26	Y26	Z26	X27	Y27	Z27	X28	Y28	Z28	X29	Y29	Z29	X30	Y30	Z30	X31	Y31	Z31	X32	Y32	Z32	X33	Y33	Z33	X34	Y34	Z34	X35	Y35	Z35	X36	Y36	Z36	X37	Y37	Z37	
2283	22.82	709.66473	1221.1892	-561.17804	707.40686	1465.3766	-414.10382	726.84167	1301.0042	-329.96582	552.23212	1406.5769	-380.30579	890.43231	1408.1395	-420.76083	667.77393	1009.6555	-649.89758	755.93555	1006.8507	-647.79895	580.82654	954.43567	-422.83536	834.2749	959.86584	-415.2403	908.20099	768.17389	-424.23752	876.64355	724.63416	-368.65576	862.18109	858.43896	-403.48856	596.57977	670.46509	-476.12039	549.13196	742.5802	-487.2879	605.18329	783.92651	-428.28488	595.21356	479.11533	-611.3949				647.00696	364.24719	-616.08643	623.8985	298.08658	-665.17761	653.65198	248.86913	-680.01947	846.5647	514.16107	-338.74054				802.2276	406.84323	-287.32916	829.15448	339.09949	-314.31766	790.43323	286.86627	-303.16504	808.64606	84.723564	-365.64981	756.98615	37.936737	-412.99634				641.44263	95.304993	-803.34076				682.26343	68.96817	-876.84442	631.48358	45.558559	-706.56531	707.96356	48.01339	-672.93768				831.711	52.026737	-247.7504	768.13727	71.702484	-215.82408			
2284	22.83	710.47839	1220.702	-561.06787	708.21582	1464.7966	-413.78885	727.57849	1300.2601	-329.77359	553.01678	1405.928	-380.0188	891.23981	1407.3846	-420.41873	668.88525	1008.9429	-649.77942	757.05261	1006.2571	-647.57733	581.67853	953.72375	-422.88272	835.15076	959.43457	-414.94724	909.54456	768.46802	-426.0957	875.60602	721.76385	-366.82474	862.94312	857.6322	-402.98874	597.52216	669.6687	-477.13287	550.21613	741.79553	-487.95935	606.1662	783.0033	-428.74847	595.73468	478.80392	-613.63428				647.23016	363.85483	-619.81177	624.01819	298.59842	-669.85028	653.66028	249.42514	-685.37	845.98059	512.70404	-339.79675				800.89496	405.5686	-288.1922	827.96167	337.64175	-314.63184	788.9295	285.53989	-303.70312	807.15063	83.300934	-365.64725	755.81421	36.588551	-413.34967				641.18994	97.596283	-810.87079				682.06049	72.624641	-884.7265	631.40778	45.583481	-715.13135	707.81238	47.882824	-681.68066				829.80078	51.139126	-247.63855	765.92822	70.696617	-215.96269			
2285	22.84	711.36548	1220.2767	-560.89148	709.09076	1464.2966	-413.43439	728.34692	1299.6106	-329.51782	553.86029	1405.3883	-379.71848	892.10779	1406.7096	-419.96454	670.01904	1008.2913	-649.57153	758.19403	1005.743	-647.26044	582.55304	953.09076	-422.85562	836.04108	959.06909	-414.55353	910.54779	768.36078	-427.18631	874.91272	719.46991	-365.634	863.72107	856.8515	-402.41776	598.38092	668.94452	-477.81305	551.25696	741.09192	-488.4006	607.13251	782.19434	-429.04111	596.15912	478.5029	-615.42377				647.29047	363.48138	-623.11682	624.01489	299.21301	-674.17175	653.52759	250.09605	-690.3877	845.47559	511.21716	-341.0257				799.61841	404.18256	-289.49875	826.82458	336.1568	-315.53967	787.47662	284.17062	-304.99527	805.7265	82.08638	-366.98404	754.72516	35.565796	-415.17548				640.89819	100.13116	-818.18469				681.88171	76.684387	-892.3277	631.32886	45.609951	-723.72949	707.66907	47.739262	-690.50812				828.03418	50.206108	-248.99313	763.82581	69.509033	-217.51163			
2286	22.85	712.32434	1219.9172	-560.65295	710.03058	1463.8806	-413.04593	729.14435	1299.0618	-329.20334	554.76111	1404.9648	-379.41141	893.03394	1406.1196	-419.40219	671.17413	1007.7059	-649.2804	759.35809	1005.3149	-646.85388	583.44611	952.54236	-422.76089	836.9408	958.77527	-414.06354	911.25916	767.94843	-427.60703	874.50232	717.664	-364.95322	864.51221	856.10767	-401.78073	599.14685	668.29834	-478.15109	552.24579	740.47528	-488.60852	608.07611	781.50824	-429.16324	596.47321	478.21204	-616.73962				647.17395	363.13007	-625.97107	623.87891	299.93326	-678.10876	653.24268	250.88713	-695.03479	845.05017	509.71991	-342.42462				798.40723	402.70468	-291.22983	825.75293	334.65579	-317.01593	786.08954	282.76865	-306.99991	804.39508	81.062775	-369.57251	753.7392	34.833248	-418.36737				640.56769	102.92133	-825.23645				681.73419	81.166962	-899.58685	631.25153	45.647167	-732.35175	707.53894	47.586632	-699.4176				826.43878	49.241623	-251.70567	761.85956	68.168922	-220.36348			
2287	22.86	713.35272	1219.6274	-560.35773	711.03339	1463.5526	-412.62958	729.96704	1298.6182	-328.83569	555.71692	1404.663	-379.10446	894.01544	1405.6187	-418.73645	672.3493	1007.191	-648.91382	760.54346	1004.9777	-646.3645	584.35352	952.08301	-422.60654	837.84534	958.55811	-413.48322	911.73883	767.33362	-427.479	874.31165	716.2533	-364.65042	865.31445	855.40948	-401.0845	599.81061	667.7359	-478.14066	553.17426	739.95154	-488.58255	608.9906	780.95306	-429.11737	596.66425	477.93146	-617.56049				646.8681	362.80414	-628.34528	623.60187	300.76059	-681.62787	652.79596	251.8022	-699.27283	844.70386	508.23004	-343.99365				797.2702	401.15515	-293.36594	824.75531	333.14963	-319.03262	784.78217	281.345	-309.67062	803.17395	80.212387	-373.30988	752.87207	34.354614	-422.80112				640.19861	105.97523	-831.9762				681.62378	86.08551	-906.43939	631.17932	45.70676	-740.98236	707.42584	47.430908	-708.39813				825.03534	48.261948	-255.65115	760.05231	66.710953	-224.39607			
2288	22.87	714.44806	1219.4094	-560.01178	712.09698	1463.3146	-412.19168	730.81134	1298.2832	-328.42139	556.72498	1404.4868	-378.80496	895.04877	1405.2101	-417.97324	673.54358	1006.7496	-648.48083	761.74878	1004.735	-645.80066	585.27118	951.71643	-422.40137	838.75006	958.42139	-412.81955	912.05151	766.61566	-426.93405	874.28473	715.15216	-364.60788	866.12622	854.76477	-400.33777	600.3634	667.26276	-477.77875	554.03375	739.52588	-488.3248	609.86963	780.53546	-428.90775	596.72034	477.66162	-617.86737				646.36353	362.5072	-630.21124	623.17737	301.69519	-684.69537	652.17999	252.84351	-703.0625	844.43561	506.76346	-345.73572				796.21503	399.55383	-295.8873	823.83936	331.64902	-321.55988	783.56659	279.91135	-312.95709	802.07684	79.517212	-378.08157	752.13458	34.093315	-428.33887				639.79108	109.29723	-838.35077				681.55457	91.445328	-912.81885	631.11487	45.802784	-749.5965	707.33148	47.280239	-717.42834				823.83685	47.284649	-260.69247	758.42102	65.173454	-229.47665			
2289	22.88	715.60693	1219.2654	-559.62189	713.21826	1463.168	-411.7392	731.67297	1298.0587	-327.96738	557.78162	1404.4386	-378.52032	896.13	1404.8953	-417.11935	674.75592	1006.3838	-647.99152	762.97266	1004.5892	-645.17133	586.19543	951.44519	-422.15503	839.65094	958.36792	-412.08084	912.2608	765.88232	-426.10367	874.37726	714.28796	-364.73209	866.94641	854.17859	-399.55054	600.79688	666.88452	-477.06628	554.81592	739.2027	-487.84033	610.70654	780.26141	-428.54056	596.63116	477.40317	-617.64404				645.6532	362.24274	-631.54279	622.60107	302.73572	-687.2782	651.38953	254.01137	-706.36487	844.24402	505.33414	-347.65604				795.24872	397.92032	-298.77411	823.01141	330.16391	-324.56665	782.453	278.47937	-316.80649	801.11249	78.959236	-383.76526	751.53192	34.013302	-434.83432				639.34485	112.88703	-844.30493				681.52875	97.242386	-918.65863	631.05823	45.951569	-758.15863	707.25537	47.14497	-726.47449				822.84912	46.327492	-266.68546	756.97565	63.59642	-235.46657			
2290	22.89	716.82562	1219.1956	-559.19531	714.39368	1463.1128	-411.27905	732.5473	1297.9452	-327.48129	558.88306	1404.5192	-378.25839	897.25439	1404.6746	-416.1825	675.98578	1006.0941	-647.45715	764.21356	1004.541	-644.48694	587.12201	951.27069	-421.87784	840.54407	958.39911	-411.27664	912.42474	765.2041	-425.11044	874.55847	713.60217	-364.9581	867.77386	853.65472	-398.73431	601.10278	666.60699	-476.00781	555.5127	738.98615	-487.13699	611.49469	780.13538	-428.02365	596.38837	477.15744	-616.87805				644.7334	362.01447	-632.3161	621.87103	303.879	-689.34467	650.42218	255.30406	-709.14221	844.12671	503.95377	-349.76169				794.37701	396.27325	-302.0069	822.27588	328.70364	-328.02115	781.44916	277.06073	-321.16501	800.28516	78.520676	-390.23486	751.06421	34.079735	-442.13788				638.85986	116.73891	-849.78223				681.54633	103.46213	-923.89386	631.00757	46.171387	-766.62158	707.19379	47.037498	-735.48907				822.06995	45.407475	-273.48349	755.71967	62.019596	-242.22562			
2291	22.9	718.09973	1219.1998	-558.74011	715.61884	1463.1479	-410.8186	733.42932	1297.9407	-326.97144	560.02454	1404.7272	-378.02698	898.41675	1404.5469	-415.17123	677.23193	1005.8804	-646.88947	765.47015	1004.5903	-643.75861	588.04742	951.19318	-421.58054	841.42621	958.51489	-410.41736	912.59222	764.63147	-424.06265	874.81055	713.04895	-365.24893	868.60797	853.19452	-397.90186	601.2735	666.43542	-474.61179	556.11627	738.87939	-486.22528	612.2276	780.16083	-427.36661	595.98517	476.92621	-615.5603				643.60425	361.82611	-632.51025	620.98773	305.12036	-690.86432	649.27838	256.71771	-711.35846	844.08093	502.6315	-352.06119				793.60437	394.63004	-305.56665	821.63568	327.27652	-331.89139	780.56036	275.66641	-325.97885	799.59436	78.184341	-397.36435	750.72607	34.259697	-450.10101				638.33551	120.84129	-854.72614				681.60498	110.07851	-928.46313	630.95807	46.481934	-774.92603	707.13971	46.971962	-744.40942				821.49066	44.539936	-280.94217	754.65027	60.480637	-249.61655			
2292	22.91	719.42468	1219.2769	-558.26465	716.88928	1463.2712	-410.36523	734.3139	1298.0428	-326.44644	561.20099	1405.0601	-377.83389	899.61139	1404.5098	-414.09509	678.49347	1005.7411	-646.30084	766.74084	1004.7349	-642.99823	588.9682	951.21185	-421.27417	842.29419	958.71387	-409.51447	912.8017	764.19421	-423.05148	875.12646	712.59113	-365.59177	869.44806	852.79749	-397.06699	601.30212	666.37494	-472.89038	556.61969	738.88507	-485.11832	612.8988	780.3399	-426.58041	595.41797	476.71204	-613.68585				642.26923	361.68149	-632.10736	619.95435	306.45346	-691.80957	647.96259	258.24606	-712.98053	844.10321	501.37442	-354.56357				792.93353	393.00659	-309.43484	821.09198	325.88986	-336.14594	779.78949	274.30664	-331.1955	799.0354	77.933792	-405.03137	750.50781	34.522766	-458.58115				637.77173	125.17621	-859.08142				681.69977	117.05322	-932.31079	630.90234	46.903618	-782.99963	707.08258	46.963802	-753.15759				821.09662	43.737862	-288.92386	753.75952	59.013454	-257.5087			
2293	22.92	720.79523	1219.4244	-557.77777	718.19946	1463.4789	-409.92636	735.19568	1298.2472	-325.91534	562.4068	1405.5129	-377.68704	900.83234	1404.5599	-412.96436	679.76923	1005.6738	-645.70435	768.02399	1004.9716	-642.2182	589.88098	951.32477	-420.96994	843.14575	958.99353	-408.58017	913.08038	763.9035	-422.15027	875.50629	712.1983	-365.99277	870.29333	852.4613	-396.24402	601.18311	666.43042	-470.85925	557.01666	739.00507	-483.83154	613.50244	780.67316	-425.67725	594.68524	476.51834	-611.25397				640.73596	361.58435	-631.09375	618.7771	307.87033	-692.1554	646.48242	259.88062	-713.97827	844.18982	500.18735	-357.27814				792.36578	391.41696	-313.59381	820.64417	324.54968	-340.75427	779.13684	272.99051	-336.76489	798.59991	77.753624	-413.12054	750.39587	34.841522	-467.44531				637.16809	129.71915	-862.79553				681.82391	124.33556	-935.38818	630.83014	47.456657	-790.75775	707.008	47.029129	-761.63977				820.86829	43.011406	-297.30087	753.03473	57.646973	-265.78156			
